<svg xmlns="http://www.w3.org/2000/svg" width="37" height="39" viewBox="0 0 37 39">
    <g fill="#3B52DC" fill-rule="nonzero">
        <path d="M30.426 10.858v-7.37h-8.848L18.5.92l-3.078 2.567H6.574v7.37l-6.56 5.463v21.746h36.964V16.321l-6.552-5.463zm-18.69 14.647l-10.53 10.53V17.782l10.53 7.722zm.973.709l5.791 4.241 5.791-4.241 10.662 10.661H2.055l10.654-10.661zm12.555-.71l10.53-7.721v18.251l-10.53-10.53zM35.42 16.57l-4.995 3.664v-7.825l4.995 4.161zM19.714 3.488h-2.428L18.5 2.47l1.214 1.017zm-3.846 1.191h13.366V21.11L18.5 28.978 7.766 21.11V4.68h8.102zM6.574 20.233l-4.995-3.664 4.995-4.16v7.824z"/>
        <path d="M9.557 6.464h17.886v1.192H9.557zM9.557 10.639h17.886v1.192H9.557zM9.557 14.814h17.886v1.192H9.557zM9.557 18.99h17.886v1.192H9.557zM17.9 33.3h1.192v1.192H17.9zM20.292 33.3h1.192v1.192h-1.192zM15.517 33.3h1.192v1.192h-1.192z"/>
    </g>
</svg>
