<svg xmlns="http://www.w3.org/2000/svg" width="34" height="49" viewBox="0 0 34 49">
    <path fill="#3B52DC" fill-rule="nonzero" d="M33.105.087H.895C.4.087 0 .488 0 .982v42.947a4.479 4.479 0 0 0 4.474 4.474h28.631a.894.894 0 1 0 0-1.79H4.474a2.687 2.687 0 0 1-2.685-2.684 2.687 2.687 0 0 1 2.685-2.684h28.631c.495 0 .895-.4.895-.895V.982c0-.494-.4-.895-.895-.895zm-.894 39.369H4.474a4.45 4.45 0 0 0-2.685.896V1.877h30.422v37.579zM17 25.14h-1.79a.894.894 0 1 0 0 1.79H17a2.687 2.687 0 0 0 2.684-2.685c0-.69-.27-1.313-.698-1.79.429-.475.698-1.099.698-1.789A2.687 2.687 0 0 0 17 17.982a.896.896 0 0 1-.895-.895c0-.493.402-.895.895-.895h1.79a.894.894 0 1 0 0-1.789H17a2.687 2.687 0 0 0-2.684 2.684c0 .69.27 1.314.698 1.79a2.667 2.667 0 0 0-.698 1.79A2.687 2.687 0 0 0 17 23.35c.493 0 .895.402.895.895a.896.896 0 0 1-.895.895zm-.895-4.474c0-.493.402-.895.895-.895s.895.402.895.895a.896.896 0 0 1-.895.895.896.896 0 0 1-.895-.895zm17 22.369a.894.894 0 1 1 0 1.79H4.474a.894.894 0 1 1 0-1.79h28.631z"/>
</svg>
