<svg xmlns="http://www.w3.org/2000/svg" width="34" height="45" viewBox="0 0 34 45">
    <g fill="#3B52DC" fill-rule="nonzero">
        <path d="M22.238.52H.035v43.837h33.94v-32.11L22.237.519zm.414 2.415l8.897 8.897h-8.897V2.935zM1.442 42.942V1.934h19.795v11.314H32.55v29.694H1.441z"/>
        <path d="M14.17 4.057H4.272v12.729h9.898V4.057zM12.754 15.37H5.687V5.473h7.067v9.897zM4.272 20.315h25.457v1.415H4.272zM4.272 25.976h25.457v1.415H4.272zM4.272 31.628h1.415v1.415H4.272zM7.102 31.628h1.415v1.415H7.102zM9.932 31.628h1.415v1.415H9.932zM28.986 33.078a.712.712 0 0 1-.207-.5c0-1.174-.95-2.123-2.123-2.123a.712.712 0 0 1-.5-.207l-.587-.587a2.125 2.125 0 0 0-3.003 0l-.587.587a.728.728 0 0 1-.5.207c-1.165 0-2.123.949-2.123 2.123 0 .19-.078.37-.207.5l-.587.587a2.125 2.125 0 0 0 0 3.003l.587.587c.13.13.207.31.207.5 0 1.174.95 2.123 2.123 2.123.19 0 .37.078.5.207l.587.587a2.13 2.13 0 0 0 3.003 0l.587-.587c.13-.13.31-.207.5-.207 1.174 0 2.123-.95 2.123-2.123 0-.19.078-.37.207-.5l.587-.587a2.13 2.13 0 0 0 0-3.003l-.587-.587zm-.414 2.589l-.587.587a2.115 2.115 0 0 0-.621 1.501.71.71 0 0 1-.708.708 2.13 2.13 0 0 0-1.501.621l-.587.587a.725.725 0 0 1-1.001 0l-.587-.587a2.115 2.115 0 0 0-1.501-.621.71.71 0 0 1-.708-.708 2.13 2.13 0 0 0-.621-1.501l-.587-.587a.708.708 0 0 1 0-1.001l.587-.587c.397-.397.621-.932.621-1.501a.71.71 0 0 1 .708-.708 2.13 2.13 0 0 0 1.501-.621l.587-.587a.706.706 0 0 1 1.001 0l.587.587c.397.397.932.621 1.501.621a.71.71 0 0 1 .708.708c0 .57.224 1.096.621 1.501l.587.587c.138.13.207.31.207.5s-.077.363-.207.5z"/>
        <path d="M21.573 34.66l2.001-2.001 1 1-2 2.002zM24.073 38.167l-1-1 3.002-3.003 1 1z"/>
    </g>
</svg>
