<svg xmlns="http://www.w3.org/2000/svg" width="40" height="48" viewBox="0 0 40 48">
    <path fill="#3B52DC" fill-rule="evenodd" d="M8.25 26.132h17.237v1.092H8.25V26.13zm0 4.27H24.25c-.422.333-.815.698-1.181 1.091H8.25v-1.092zm8.618-21.228c3.75 0 6.8 3.063 6.8 6.83 0 3.768-3.05 6.831-6.8 6.831s-6.8-3.063-6.8-6.83c0-3.768 3.05-6.831 6.8-6.831zm0 .854c-3.291 0-5.95 2.67-5.95 5.977 0 3.306 2.659 5.977 5.95 5.977 3.292 0 5.95-2.671 5.95-5.977 0-3.306-2.658-5.977-5.95-5.977zM0 0h33.736v28.567a10.41 10.41 0 0 0-1.088-.258V1.093H1.088v42.632H21.48c.205.38.438.742.687 1.093H0V0zm13.59 16.03h1.085v2.321h4.386v-2.32h1.086v3.412H13.59v-3.412zm3.278-3.462c1.05 0 1.912.864 1.912 1.919 0 1.055-.862 1.92-1.912 1.92-1.05 0-1.911-.865-1.911-1.92s.86-1.92 1.91-1.92zm0 1.09a.817.817 0 0 0-.825.829c0 .465.361.828.825.828a.817.817 0 0 0 .824-.828.817.817 0 0 0-.824-.828zM8.25 34.67H21.02c-.146.355-.27.72-.377 1.092H8.25V34.67zm22.5-5.253c5.102 0 9.25 4.166 9.25 9.291C40 43.834 35.852 48 30.75 48s-9.25-4.166-9.25-9.292c0-5.125 4.148-9.291 9.25-9.291zm0 1.093c-4.514 0-8.162 3.664-8.162 8.198 0 4.535 3.648 8.199 8.162 8.199 4.514 0 8.162-3.664 8.162-8.199 0-4.534-3.648-8.198-8.162-8.198zm-.544 6.148h1.088v6.423h-1.088v-6.423zm0-2.322h1.088v1.13h-1.088v-1.13z"/>
</svg>
