<svg xmlns="http://www.w3.org/2000/svg" width="50" height="36" viewBox="0 0 50 36">
    <path fill="#3B52DC" fill-rule="nonzero" d="M27.536 30.24c.4 0 .725.322.725.72 0 .398-.325.72-.725.72H6.522C2.92 31.68 0 28.78 0 25.2V6.48C0 2.898 2.916 0 6.52 0h32.611c3.6 0 6.521 2.903 6.521 6.48v7.2c0 .398-.324.72-.724.72a.722.722 0 0 1-.725-.72v-7.2c0-2.782-2.272-5.04-5.072-5.04H6.521c-2.805 0-5.072 2.254-5.072 5.04V25.2c0 2.784 2.271 5.04 5.073 5.04h21.014zM40.217 36c-5.402 0-9.782-4.352-9.782-9.72s4.38-9.72 9.782-9.72c5.403 0 9.783 4.352 9.783 9.72S45.62 36 40.217 36zm0-1.44c4.603 0 8.334-3.707 8.334-8.28 0-4.573-3.731-8.28-8.334-8.28-4.602 0-8.333 3.707-8.333 8.28 0 4.573 3.731 8.28 8.333 8.28zm3.474-11.31a.728.728 0 0 1 1.024 0 .717.717 0 0 1 0 1.02l-5.072 5.04a.728.728 0 0 1-1.025 0l-2.174-2.16a.717.717 0 0 1 0-1.02.728.728 0 0 1 1.025 0l1.661 1.652 4.56-4.531zm-15.194-6.953l-9.115 5.759a.725.725 0 0 1-1.114-.608V9.928a.725.725 0 0 1 1.114-.607l9.115 5.76a.718.718 0 0 1 0 1.216zm-8.78-5.057v8.897l7.041-4.448-7.04-4.45z"/>
</svg>
