<svg xmlns="http://www.w3.org/2000/svg" width="50" height="47" viewBox="0 0 50 47">
    <path fill="#3B52DC" fill-rule="nonzero" d="M3.802 0C1.705 0 0 1.718 0 3.83v21.89c0 2.112 1.705 3.83 3.802 3.83h4.277L7.06 39.895c-.04.449.625.753.934.428L18.686 29.55h6.297v8.926c0 1.663 1.298 3.037 2.92 3.044l9.894.051 5.838 5.319c.325.287.94-.029.9-.462l-.475-4.857h3.004c1.624 0 2.936-1.38 2.936-3.044V23.855c0-1.663-1.314-3.022-2.936-3.027l-5.788-.016V3.83c0-2.113-1.705-3.83-3.801-3.83L3.802 0zm0 1.094h33.673a2.708 2.708 0 0 1 2.715 2.737v16.98l-12.27-.034c-1.626-.005-2.937 1.38-2.937 3.044v4.634h-6.517a.54.54 0 0 0-.39.154l-9.777 9.85.934-9.405c.028-.303-.241-.6-.543-.599H3.802a2.708 2.708 0 0 1-2.716-2.736V3.831a2.708 2.708 0 0 1 2.716-2.736zm15.156 3.267c-2.87 0-5.326 1.74-5.906 4.172a.57.57 0 0 0 .387.704c.291.071.619-.15.665-.447.443-1.856 2.423-3.335 4.854-3.335 2.78 0 4.939 1.904 4.939 4.155 0 3.259-1.192 4.302-2.546 5.558-1.354 1.257-2.885 2.737-2.885 6.156a.567.567 0 0 0 .543.555.567.567 0 0 0 .543-.555c0-3.113 1.184-4.089 2.546-5.352 1.361-1.264 2.885-2.81 2.885-6.362 0-2.946-2.746-5.25-6.025-5.25zm8.961 17.51l19.145.052c1.021 0 1.85.836 1.85 1.932v14.672c0 1.097-.83 1.95-1.85 1.95h-3.615a.57.57 0 0 0-.543.598l.407 4.053-4.956-4.514a.547.547 0 0 0-.356-.137l-10.082-.051c-1.022-.006-1.85-.853-1.85-1.95V23.821c0-1.096.832-1.952 1.85-1.95zm-8.91 1.642c-.6 0-1.086.49-1.086 1.095a1.09 1.09 0 0 0 1.086 1.094c.6 0 1.086-.49 1.086-1.094a1.09 1.09 0 0 0-1.086-1.095zm17.922 1.095c-.3 0-.543.245-.543.547v8.755c0 .302.243.547.543.547.3 0 .544-.245.544-.547v-8.755a.545.545 0 0 0-.544-.547zm0 11.491c-.6 0-1.086.49-1.086 1.094a1.09 1.09 0 0 0 1.086 1.095c.6 0 1.087-.49 1.087-1.095A1.09 1.09 0 0 0 36.93 36.1z"/>
</svg>
