<svg xmlns="http://www.w3.org/2000/svg" width="50" height="44" viewBox="0 0 50 44">
    <path fill="#3B52DC" fill-rule="nonzero" d="M49.44 0H.56A.563.563 0 0 0 0 .556v34.856c0 .303.255.556.56.556h23.88v3.89c-.917.252-1.578 1.06-1.578 2.02C22.862 43.04 23.829 44 25 44c1.171 0 2.138-.96 2.138-2.122 0-.96-.661-1.818-1.578-2.02v-3.89h23.88c.305 0 .56-.253.56-.556V.556A.563.563 0 0 0 49.44 0zM26.018 41.878c0 .556-.458 1.01-1.018 1.01s-1.018-.454-1.018-1.01c0-.555.458-1.01 1.018-1.01s1.018.455 1.018 1.01zM48.88 1.111v31.422H1.12V1.11h47.76zM1.12 34.856v-1.212h47.81v1.212H1.12zm3.972-31.37a.563.563 0 0 1-.56-.556c0-.303.254-.556.56-.556h39.51c.306 0 .56.253.56.556a.563.563 0 0 1-.56.556H5.093zM25 8.234c5.448 0 9.929 4.395 9.929 9.851 0 5.456-4.48 9.85-9.929 9.85-5.448 0-9.929-4.394-9.929-9.85 0-5.456 4.48-9.85 9.929-9.85zm0 18.439c4.786 0 8.656-3.84 8.656-8.588 0-4.749-3.87-8.588-8.656-8.588-4.786 0-8.656 3.84-8.656 8.588 0 4.749 3.87 8.588 8.656 8.588zm0-5.961c-.356 0-.611-.253-.662-.657v-2.071c0-.303.255-.556.56-.606 1.528-.253 1.68-1.415 1.68-1.87v-.05c-.05-.859-.712-1.515-1.629-1.515a1.58 1.58 0 0 0-1.578 1.566.617.617 0 0 1-.611.606.617.617 0 0 1-.611-.606A2.836 2.836 0 0 1 25 12.679c1.578 0 2.851 1.264 2.851 2.78 0 .858-.254 2.474-2.138 3.03l-.102.05v1.567a.617.617 0 0 1-.611.606zm0 2.93a.862.862 0 0 1-.866-.859c0-.474.388-.859.866-.859s.866.385.866.859a.862.862 0 0 1-.866.859z"/>
</svg>
