<svg xmlns="http://www.w3.org/2000/svg" width="44" height="44" viewBox="0 0 44 44">
    <path fill="#3B52DC" fill-rule="nonzero" d="M43.71 12.598L31.402.29a.99.99 0 0 0-.698-.29H13.297a.987.987 0 0 0-.7.29L.29 12.598a.99.99 0 0 0-.29.699v17.407c0 .262.104.513.29.698L12.598 43.71a.99.99 0 0 0 .699.29h17.407a.989.989 0 0 0 .698-.29L43.71 31.402a.99.99 0 0 0 .29-.698V13.297a.988.988 0 0 0-.29-.7zm-1.688 17.696L30.293 42.022H13.706L1.976 30.294V13.706l11.73-11.729h16.587l11.729 11.73v16.587zM26.244 22.46a.989.989 0 0 0 .989-.988V9.314a.99.99 0 0 0-1.978 0v12.159c0 .546.443.988.989.988zm-5.062 0a.989.989 0 0 0 .989-.988V6.833a.989.989 0 0 0-1.978 0v14.64c0 .546.443.988.989.988zm8.974 4.132c0 4.84-3.937 8.778-8.778 8.778-4.84 0-8.778-3.937-8.778-8.778V17.98a3.92 3.92 0 0 1 2.923 3.786v3.727c0 .546.443.99.99.99 2.402 0 4.202.887 5.068 2.5a.99.99 0 0 0 1.338.404.99.99 0 0 0 .404-1.339c-1.095-2.041-3.141-3.263-5.822-3.5V8.817a.989.989 0 0 0-1.978 0v8.557a5.859 5.859 0 0 0-3.912-1.5.989.989 0 0 0-.99.99v9.729c0 5.931 4.826 10.756 10.757 10.756s10.756-4.825 10.756-10.756V11.896a.99.99 0 0 0-1.978 0v14.697z"/>
</svg>
